<svg width="468" height="112" viewBox="0 0 468 112" fill="none" xmlns="http://www.w3.org/2000/svg">
<path d="M167.003 48.0509L178.456 28.4378H189.386L172.917 55.3592L189.76 82.7281H178.718L167.003 62.8167L155.249 82.7281H144.245L161.126 55.3592L144.619 28.4378H155.549L167.003 48.0509Z" fill="#201D1D"/>
<path d="M236.137 36.0444H219.144V82.7281H209.748V36.0444H192.905V28.4378H236.137V36.0444Z" fill="#201D1D"/>
<path d="M249.912 63.3014H230.26V55.9931H249.912V63.3014Z" fill="#201D1D"/>
<path d="M277.049 48.0509L288.503 28.4378H299.432L282.963 55.3592L299.807 82.7281H288.765L277.049 62.8167L265.296 82.7281H254.291L271.172 55.3592L254.665 28.4378H265.595L277.049 48.0509Z" fill="#201D1D"/>
<path d="M337.312 70.0877H316.201L311.785 82.7281H301.94L322.527 28.4378H331.024L351.648 82.7281H341.767L337.312 70.0877ZM318.859 62.4811H334.655L326.757 39.9596L318.859 62.4811Z" fill="#201D1D"/>
<path d="M377.887 61.8099H367.332V82.7281H357.862V28.4378H377.026C383.315 28.4378 388.168 29.8423 391.587 32.6512C395.006 35.4602 396.715 39.5245 396.715 44.8442C396.715 48.4735 395.829 51.5186 394.057 53.9796C392.311 56.4157 389.865 58.2925 386.721 59.61L398.961 82.2434V82.7281H388.817L377.887 61.8099ZM367.332 54.2406H377.064C380.258 54.2406 382.753 53.4451 384.55 51.8542C386.347 50.2384 387.245 48.0385 387.245 45.2544C387.245 42.3459 386.409 40.0963 384.737 38.5054C383.09 36.9144 380.62 36.0941 377.326 36.0444H367.332V54.2406Z" fill="#201D1D"/>
<path d="M415.692 82.7281H406.26V28.4378H415.692V82.7281Z" fill="#201D1D"/>
<path d="M427.333 82.7281V28.4378H443.428C448.245 28.4378 452.512 29.5067 456.23 31.6445C459.973 33.7823 462.867 36.815 464.914 40.7426C466.96 44.6702 467.983 49.1695 467.983 54.2406V56.9626C467.983 62.1082 466.947 66.6324 464.876 70.5351C462.83 74.4379 459.898 77.4457 456.08 79.5587C452.287 81.6716 447.933 82.7281 443.017 82.7281H427.333ZM436.803 36.0444V75.1961H442.979C447.945 75.1961 451.751 73.6549 454.396 70.5724C457.066 67.4652 458.426 63.0155 458.476 57.2236V54.2033C458.476 48.3119 457.191 43.8126 454.62 40.7053C452.05 37.598 448.319 36.0444 443.428 36.0444H436.803Z" fill="#201D1D"/>
<path d="M85.1234 30.2157L111.009 56.0009L97.6654 69.2924L97.6653 69.2925L84.3172 82.5909L58.0426 56.4193L85.1234 30.2157Z" fill="white" stroke="#C1C1C1" stroke-width="2"/>
<path d="M85.1436 28.8146L56.6254 56.4092L28.1079 28.0006L42.1632 14L56.2178 0L70.2724 14L85.1436 28.8146Z" fill="#009AB8"/>
<path d="M56.2178 112L42.1632 98.0007L28.1079 84.0008L56.6254 56.4082L84.3264 84.0008L70.2724 98.0007L56.2178 112Z" fill="#00B75B"/>
</svg>
